<svg xmlns="http://www.w3.org/2000/svg" id="figma-1" viewBox="0 0 36.82 55.23"><path id="path0_fill" d="M9.2,218.41a9.208,9.208,0,0,0,9.2-9.2V200H9.2a9.2,9.2,0,1,0,0,18.41Z" transform="translate(0 -163.18)" fill="#0acf83"/><path id="path1_fill" d="M0,109.2A9.208,9.208,0,0,1,9.2,100h9.2v18.41H9.2A9.208,9.208,0,0,1,0,109.2Z" transform="translate(0 -81.59)" fill="#a259ff"/><path id="path1_fill_1_" d="M0,9.2A9.208,9.208,0,0,1,9.2,0h9.2V18.41H9.2A9.208,9.208,0,0,1,0,9.2Z" fill="#f24e1e"/><path id="path2_fill" d="M100,0h9.2a9.2,9.2,0,0,1,0,18.41H100Z" transform="translate(-81.59)" fill="#ff7262"/><path id="path3_fill" d="M118.41,109.2a9.2,9.2,0,1,1-9.2-9.2A9.208,9.208,0,0,1,118.41,109.2Z" transform="translate(-81.59 -81.59)" fill="#1abcfe"/></svg>