<svg xmlns="http://www.w3.org/2000/svg" viewBox="0 0 58.042 56.611"><path d="m29.021 0a29.024 29.024 0 0 0 -9.173 56.56c1.449.268 1.918-.631 1.918-1.4v-5.4c-8.073 1.756-9.754-3.425-9.754-3.425-1.32-3.354-3.224-4.247-3.224-4.247-2.634-1.8.2-1.763.2-1.763a6.092 6.092 0 0 1 4.448 2.992c2.588 4.435 6.789 3.154 8.445 2.411a6.157 6.157 0 0 1 1.843-3.879c-6.444-.736-13.224-3.224-13.224-14.342a11.232 11.232 0 0 1 2.989-7.79 10.439 10.439 0 0 1 .283-7.681s2.438-.779 7.983 2.975a27.507 27.507 0 0 1 14.532 0c5.541-3.753 7.974-2.975 7.974-2.975a10.429 10.429 0 0 1 .285 7.681 11.2 11.2 0 0 1 2.987 7.79c0 11.147-6.789 13.6-13.251 14.32a6.937 6.937 0 0 1 1.99 5.374v7.964c0 .771.464 1.678 1.937 1.393a29.027 29.027 0 0 0 -9.188-56.558z"/></svg>